<?xml version="1.0" encoding="UTF-8" standalone="no"?>
<svg
   xmlns:dc="http://purl.org/dc/elements/1.1/"
   xmlns:cc="http://creativecommons.org/ns#"
   xmlns:rdf="http://www.w3.org/1999/02/22-rdf-syntax-ns#"
   xmlns:svg="http://www.w3.org/2000/svg"
   xmlns="http://www.w3.org/2000/svg"
   xmlns:sodipodi="http://sodipodi.sourceforge.net/DTD/sodipodi-0.dtd"
   xmlns:inkscape="http://www.inkscape.org/namespaces/inkscape"
   version="1.1"
   x="0px"
   y="0px"
   viewBox="0 0 100 100"
   xml:space="preserve"
   id="svg341"
   sodipodi:docname="noun_Briefcase_693680.svg"
   width="100"
   height="100"
   inkscape:version="0.92.4 (5da689c313, 2019-01-14)"><metadata
     id="metadata347"><rdf:RDF><cc:Work
         rdf:about=""><dc:format>image/svg+xml</dc:format><dc:type
           rdf:resource="http://purl.org/dc/dcmitype/StillImage" /><dc:title></dc:title></cc:Work></rdf:RDF></metadata><defs
     id="defs345" /><sodipodi:namedview
     pagecolor="#ffffff"
     bordercolor="#666666"
     borderopacity="1"
     objecttolerance="10"
     gridtolerance="10"
     guidetolerance="10"
     inkscape:pageopacity="0"
     inkscape:pageshadow="2"
     inkscape:window-width="640"
     inkscape:window-height="480"
     id="namedview343"
     showgrid="false"
     inkscape:zoom="1.888"
     inkscape:cx="50"
     inkscape:cy="62.5"
     inkscape:window-x="640"
     inkscape:window-y="300"
     inkscape:window-maximized="0"
     inkscape:current-layer="svg341" /><polygon
     points=""
     id="polygon325"
     transform="translate(0,-25)" /><g
     id="g335"
     transform="matrix(1.218635,0,0,1.218635,-10.339395,-11.711074)"><path
       d="M 67.8,30.7 V 24 C 67.8,17.6 62.6,12.4 56.2,12.4 H 43.8 c -6.4,0 -11.6,5.2 -11.6,11.6 v 6.7 h 7.4 V 24 c 0,-2.4 1.9,-4.3 4.3,-4.3 h 12.4 c 2.4,0 4.3,1.9 4.3,4.3 v 6.7 z M 56.2,17.9 H 43.8 c -3.4,0 -6.1,2.7 -6.1,6.1 v 4.8 H 34 V 24 c 0,-5.4 4.4,-9.8 9.8,-9.8 h 12.4 c 5.4,0 9.8,4.4 9.8,9.8 v 4.8 H 62.3 V 24 c 0,-3.3 -2.7,-6.1 -6.1,-6.1 z"
       id="path327"
       inkscape:connector-curvature="0" /><path
       d="m 58.5,59.7 -0.7,0.2 v 5.2 c 0,1.6 -1.3,2.9 -2.9,2.9 h -9.8 c -1.6,0 -2.9,-1.3 -2.9,-2.9 V 59.9 L 41.5,59.7 C 31.2,57 17.5,51.1 12,48.7 L 10.7,48.1 V 87.5 H 89.2 V 48.2 L 88,48.7 C 82.5,51.1 68.8,57 58.5,59.7 Z M 87.4,85.8 H 12.6 V 51 c 6,2.6 18.2,7.7 27.8,10.3 v 3.8 c 0,2.6 2.1,4.7 4.7,4.7 h 9.8 c 2.6,0 4.7,-2.1 4.7,-4.7 V 61.3 C 69.2,58.7 81.4,53.6 87.4,51 Z"
       id="path329"
       inkscape:connector-curvature="0" /><path
       d="m 10.7,46.1 0.5,0.2 c 4.2,1.9 18.9,8.3 29.7,11.3 l 1.2,0.3 v -2.7 c 0,-1.6 1.3,-2.9 2.9,-2.9 h 9.8 c 1.6,0 2.9,1.3 2.9,2.9 V 58 l 1.2,-0.3 c 10.8,-3 25.5,-9.4 29.7,-11.3 l 0.5,-0.2 V 32.9 H 10.7 Z M 12.6,34.7 H 87.4 V 45 c -4.6,2 -17.6,7.7 -27.8,10.6 v -0.3 c 0,-2.6 -2.1,-4.7 -4.7,-4.7 h -9.8 c -2.6,0 -4.7,2.1 -4.7,4.7 v 0.3 C 30.2,52.6 17.2,47 12.6,45 Z"
       id="path331"
       inkscape:connector-curvature="0" /><path
       d="m 54.9,66.2 c 0.6,0 1,-0.5 1,-1 v -9.8 c 0,-0.6 -0.5,-1 -1,-1 h -9.8 c -0.6,0 -1,0.5 -1,1 v 9.8 c 0,0.6 0.5,1 1,1 z m -9,-10.1 h 8.2 v 8.2 h -8.2 z"
       id="path333"
       inkscape:connector-curvature="0" /></g></svg>