<?xml version="1.0" encoding="UTF-8" standalone="no"?>
<!-- Created with Inkscape (http://www.inkscape.org/) -->

<svg
   version="1.1"
   id="svg1"
   width="4000"
   height="4000"
   viewBox="0 0 4000 4000"
   sodipodi:docname="0899-vector-wikianswers-orange-avatar-man-on-the-town-01.eps"
   xmlns:inkscape="http://www.inkscape.org/namespaces/inkscape"
   xmlns:sodipodi="http://sodipodi.sourceforge.net/DTD/sodipodi-0.dtd"
   xmlns="http://www.w3.org/2000/svg"
   xmlns:svg="http://www.w3.org/2000/svg">
  <defs
     id="defs1" />
  <sodipodi:namedview
     id="namedview1"
     pagecolor="#505050"
     bordercolor="#eeeeee"
     borderopacity="1"
     inkscape:showpageshadow="0"
     inkscape:pageopacity="0"
     inkscape:pagecheckerboard="0"
     inkscape:deskcolor="#505050">
    <inkscape:page
       x="0"
       y="0"
       inkscape:label="1"
       id="page1"
       width="4000"
       height="4000"
       margin="0"
       bleed="0" />
  </sodipodi:namedview>
  <g
     id="g1"
     inkscape:groupmode="layer"
     inkscape:label="1">
    <path
       id="path1"
       d="M 18332.9,13075.9 17277.7,9041.43 16629,10082.8 c -719,565.1 -1279.5,0 -1279.5,0 l -312.8,-1316.71 c -747.2,1134.37 -1447.6,2213.21 -1993.8,3053.61 462.3,-60.7 929.1,-79.4 1391.5,-56.1 -14.2,-354.7 83.8,-952.4 826.2,-1307.2 0,0 662.9,555.8 1554.8,0 0,0 1050.7,1232.4 714.6,1601.2 -191.5,205.6 -369,280.4 -485.7,303.7 452.8,191.5 887,429.5 1288.6,714.6"
       style="fill:#a7a5a6;fill-opacity:1;fill-rule:nonzero;stroke:none"
       transform="matrix(0.13333333,0,0,-0.13333333,0,4000)" />
    <path
       id="path2"
       d="m 11469.2,5726.64 c -56.1,168.16 70.4,289.53 527.6,733.26 214.8,205.2 630.5,602.33 756.6,798.24 -200.8,74.32 -607,181.91 -947.6,266 -737.7,186.81 -952.4,252.02 -1046.1,340.99 -17.7,16.87 -44.1,65.24 -76.1,133.12 C 9645.34,7557.87 8669.17,6993.69 7785.52,6294.39 7216.01,5128.09 6659.81,3954.23 6105.39,2779.73 c 1268.35,-118.04 2543.38,-232.09 3822.83,-337 -33.73,245.79 -44.38,597.9 -41.49,953.96 4.44,635.17 46.37,1274.81 51.47,1321.4 9.1,46.59 69.7,79.43 163.3,98.05 93.4,13.99 224.3,13.99 359.2,-4.66 135.5,-18.62 257.1,-60.55 345.6,-102.48 84.3,-47.04 130.9,-93.63 126.3,-140.45 -9.6,-46.6 -158.7,-672.24 -341,-1274.34 -101.6,-331.25 -211.7,-654.5 -312.8,-879.67 1797.9,-145.56 3603.8,-270.02 5413.5,-359.87 -1568.3,1066.69 -4159.6,3481.42 -4223.1,3671.97"
       style="fill:#7b7979;fill-opacity:1;fill-rule:nonzero;stroke:none"
       transform="matrix(0.13333333,0,0,-0.13333333,0,4000)" />
    <path
       id="path3"
       d="m 7948.81,6632.29 c -55.26,-112.28 -108.5,-225.85 -163.29,-337.9 883.65,699.3 1859.82,1263.48 2898.08,1703.86 -187.9,398.46 -588.1,1576.74 -815.73,2458.15 C 9219.16,9190.96 8579.32,7911.72 7948.81,6632.29"
       style="fill:#5a5758;fill-opacity:1;fill-rule:nonzero;stroke:none"
       transform="matrix(0.13333333,0,0,-0.13333333,0,4000)" />
    <path
       id="path4"
       d="m 11055.7,8152.89 c 136.4,-57.47 541.3,-164.62 852.6,-241.17 579.1,-149.31 975.7,-252.26 1139,-350.31 79.9,-41.93 126.5,-116.7 140.5,-205.23 27.9,-252.02 -270.9,-569.93 -910.6,-1185.81 -130.8,-126.46 -285,-270.9 -368.9,-364.3 557.8,-588.36 3558.4,-3322.75 4617.1,-3790 681.7,-29.71 1363.3,-54.35 2045.5,-71.67 l -4815,6971.69 c -927.8,-176.39 -1834.3,-424.87 -2700.2,-763.2"
       style="fill:#7b7979;fill-opacity:1;fill-rule:nonzero;stroke:none"
       transform="matrix(0.13333333,0,0,-0.13333333,0,4000)" />
    <path
       id="path5"
       d="m 21040.9,11049 c -101.7,-632.7 -270.1,-1515.05 -473.3,-2116.96 639.2,-111.13 1269.3,-251.57 1886.7,-420.86 -636.5,1173.63 -1142.5,2065.52 -1413.4,2537.82"
       style="fill:#5a5758;fill-opacity:1;fill-rule:nonzero;stroke:none"
       transform="matrix(0.13333333,0,0,-0.13333333,0,4000)" />
    <path
       id="path6"
       d="m 21448,1912.47 c -141.4,293.75 -321.1,850.82 -486.6,1423.67 -242.5,844.83 -452.6,1713.4 -462.3,1773.98 -13.6,65.65 32.8,135.52 112.2,191.68 84.3,55.89 201,107.59 341,130.66 135.6,23.31 261.4,18.85 359.5,-4.43 98,-28.41 163.7,-74.77 172.8,-140.42 14,-65.25 116.7,-947.57 177.2,-1825.68 46.6,-620.98 73,-1234.44 34.6,-1548.13 1327.4,7.33 2653.5,44.83 3975.7,116.91 -304.6,695.31 -1067.5,2423.82 -2217.4,4601.58 -358.3,686.63 -693.5,1313.16 -1000.4,1878.89 -617.4,169.29 -1247.5,309.73 -1886.7,420.86 -114.9,-339.21 -240.2,-590.35 -371.6,-656.02 -163.7,-79.43 -383.1,-130.9 -597.9,-181.93 -130.7,-28.4 -335.9,-79.87 -429.5,-121.79 51.7,-107.17 205.7,-326.59 303.7,-471.44 247.2,-354.77 387.6,-569.52 387.6,-733.25 0,-209.66 -724.1,-1834.77 -1377.5,-3258.65 455.5,-694.19 822.6,-1249.07 1047.4,-1583.18 639.6,-11.09 1279,-15.08 1918.2,-13.31"
       style="fill:#7b7979;fill-opacity:1;fill-rule:nonzero;stroke:none"
       transform="matrix(0.13333333,0,0,-0.13333333,0,4000)" />
    <path
       id="path7"
       d="m 6608.78,19883.4 c -102.72,-1186.1 65.67,-2395.6 499.62,-3501.8 -485.65,93 -1536.14,289.1 -2721.97,742.3 -863.69,321.9 -919.82,990 -667.57,1512.4 93.4,229 191.46,411.4 266.23,541.6 205.21,140.7 607,416 1167.2,742.3 382.71,84.6 872.78,107.6 1456.49,-36.8"
       style="fill:#5a5758;fill-opacity:1;fill-rule:nonzero;stroke:none"
       transform="matrix(0.13333333,0,0,-0.13333333,0,4000)" />
    <path
       id="path8"
       d="m 25579.4,21130 c 126,-172.8 130.4,-336.5 144.7,-350.3 -32.9,-65.7 41.9,-1652.8 -1494.3,-2502.8 -1367.9,-700.2 -2619,-831.1 -2941.4,-844.8 214.8,905.6 256.7,1843.9 140.1,2768.6 588.1,285 1125.2,541.7 1615.3,737.9 737.9,317.2 1396.4,550.6 1890.9,527.5 313.2,-135.5 532.7,-256.9 644.7,-336.1"
       style="fill:#5a5758;fill-opacity:1;fill-rule:nonzero;stroke:none"
       transform="matrix(0.13333333,0,0,-0.13333333,0,4000)" />
    <path
       id="path9"
       d="m 26097.5,1781.13 -32.4,-9.11 -243,-74.75 c -18.6,0 -863.7,2087 -2367.4,4935.02 -1101.5,2110.51 -2012.1,3716.51 -2413.8,4416.71 -158.7,-989.2 -480.6,-2591.06 -844.9,-2772.98 -163.7,-79.43 -383.1,-130.9 -597.9,-181.93 -130.7,-28.4 -335.9,-79.87 -429.5,-121.79 51.7,-107.17 205.7,-326.59 303.7,-471.44 247.2,-354.77 387.6,-569.52 387.6,-733.25 0,-209.66 -724.1,-1834.77 -1377.5,-3258.65 714.6,-1087.98 1213.8,-1839.86 1284.1,-1923.73 l -308.4,-252.25 c -74.7,88.96 -621,906.05 -1377.3,2049.52 l -79.4,37.5 c 9.5,18.63 14.2,32.81 23.3,51.46 -461.9,700.42 -994.6,1512.84 -1549.9,2357.69 l -37.3,9.77 9.1,37.27 c -1615.5,2460.39 -3380.7,5163.71 -3940.4,6027.41 -257.1,51.5 -518.5,116.7 -770.7,196.1 -737.7,-280 -1512.9,-630.3 -1634,-784.2 -4.7,-46.6 9.1,-135.6 27.7,-247.6 l 9.6,-4.7 32.8,-18.6 c -9.5,-18.7 -18.6,-37.5 -23.7,-51 163.7,-789.4 742.7,-2558.96 891.8,-2834.5 121.4,-55.92 546.2,-168.17 868.6,-247.38 579.1,-149.31 975.7,-252.26 1139,-350.31 79.9,-41.93 126.5,-116.7 140.5,-205.23 27.9,-252.02 -270.9,-569.93 -910.6,-1185.81 -130.8,-126.46 -285,-270.9 -368.9,-364.3 592.8,-625.63 3950.2,-3679.28 4795,-3852.11 l -83.8,-392.03 c -1050.6,219.2 -5070.8,3926.66 -5150.3,4164.71 -56.1,168.16 70.4,289.53 527.6,733.26 214.8,205.2 630.5,602.33 756.6,798.24 -200.8,74.32 -607,181.91 -947.6,266 -737.7,186.81 -952.4,252.02 -1046.1,340.99 -121.1,116.71 -625.4,1559.45 -891.83,2591.27 C 9219.16,9190.96 8579.32,7911.72 7948.81,6632.29 7225.1,5157.13 6520.26,3672.02 5819.86,2182.91 l -37.29,4.66 -228.94,106.93 c 4.65,0 574.61,1966.34 1867.58,4594.91 1013.23,2063.72 1965.67,3525.09 2334.63,4061.59 -41.93,243.1 -60.79,430.1 -27.96,509.3 93.62,252.3 784.22,583.7 1428.52,844.9 -896.3,364.5 -1722.49,901.2 -2404.26,1620.2 -639.61,607.2 -1134.8,1325.8 -1494.2,2110.5 -1050.5,27.8 -2091.9,116.7 -3114.22,550.9 -499.63,200.6 -1153.44,728.6 -1069.14,1475.4 60.57,499.8 279.99,877.9 550.88,1213.8 4.43,14.1 9.54,18.8 18.63,23.7 88.97,111.8 181.93,214.7 279.98,317.5 130.91,140 275.78,252 424.87,350.1 504.27,419.9 1055.6,784.2 1643.74,1064.7 368.95,181.9 746.99,331.4 1134.59,452.8 -1097.1,667.5 -2628.8,2805.8 -2698.91,2899.4 -41.93,65.3 -46.59,149.6 -9.1,219.2 644.28,1088 1512.86,2371.9 1970.11,2274.1 154.18,-37.5 383.15,-294.2 630.73,-658.5 307.73,397.1 793.37,971.1 1073.79,1050.5 121.13,37.5 293.97,84.3 835.74,-1017.7 415.32,214.8 2796.77,1615.4 6568.97,2269.4 1046.1,158.6 1993.9,223.9 2895.1,172.2 625.4,-153.6 807.7,-588.2 1022.5,-891.2 191.5,-336.6 336.1,-649.4 452.8,-938.9 280,-714.2 434.2,-1255.7 508.9,-1568.6 l 424.9,-41.9 135.6,-14.2 c 354.5,-172.8 172.6,-116.7 275.3,-186.8 74.7,-69.9 140,-172.8 205.6,-270.9 177.3,-798.5 214.8,-1326 312.9,-1951.5 719,-70.3 1438,-177.4 2147.5,-387.5 560.5,-200.8 1139.5,-359.4 1634.2,-803.2 9.6,-4.4 14,-9.5 23.1,-13.9 145.1,-98.1 252.3,-229 327,-373.4 23.3,-28.4 47.1,-56.2 65.7,-84.1 l -18.6,-9.6 c 46.3,-112 79.2,-223.8 102.5,-326.7 h -4.7 c 182.2,-1195.2 -397.1,-2512.1 -1484.9,-3062.8 -513.4,-294.2 -1073.8,-462.3 -1634.2,-565.1 -280,-55.9 -560,-79.2 -844.8,-97.8 -140,-9.8 -285.1,-4.7 -429.5,-9.8 l -219.4,9.8 -121.8,13.5 c -23.3,5.1 -27.8,5.1 -65.3,9.6 -331.4,-1200.1 -957.1,-2320.5 -1886.2,-3203 -149.5,-154.2 -308.2,-303.3 -467,-443.3 l -32.6,-107.6 c 2044.8,-891.8 2325.3,-1265.2 2325.3,-1540.8 0,-23 -9.6,-135.3 -37.5,-308.1 1083.5,-1471 2026.4,-3011.75 2866.8,-4622.65 859,-1633.99 1583,-3342.52 2119.7,-5121.82 z m -373.4,18998.57 c -14.3,13.8 -18.7,177.5 -144.7,350.3 -112,79.2 -331.5,200.6 -644.7,336.1 -494.5,23.1 -1153,-210.3 -1890.9,-527.5 -490.1,-196.2 -1027.2,-452.9 -1615.3,-737.9 116.6,-924.7 74.7,-1863 -140.1,-2768.6 322.4,13.7 1573.5,144.6 2941.4,844.8 1536.2,850 1461.4,2437.1 1494.3,2502.8 z m -1563.9,971.3 c -140.4,46.6 -289.5,88.5 -448.4,125.8 -1125.3,317.5 -1970.5,616.5 -2082.3,667.6 l -140.5,-23.3 c -37.3,-56.2 -121.1,980.8 -578.6,2213.2 -1223.3,223.9 -3553.3,121.4 -5971.7,-293.9 -1863,-359.9 -3567.5,-775.2 -4888.9,-1186.1 -18.6,-18.6 -41.9,-32.8 -65.23,-41.9 -23.07,-9.6 -46.37,-14.2 -70.11,-14.2 -9.1,0 -18.64,0 -27.73,4.6 -1564.09,-499.4 -2544.71,-994.6 -2549.37,-1377.5 51.47,-27.7 98.07,-55.7 140,-74.3 56.12,-28.2 93.4,-74.8 107.59,-130.9 410.88,102.7 830.86,177.5 1265.26,210.3 v -37.5 -14.2 c 4.67,0 9.09,0 13.75,0 3973.74,-756.3 8166.14,-527.3 12097.44,621.2 l 532.7,65 88.5,9.8 c -46.6,-65.7 -126,-130.9 -233.6,-163.7 -4029.1,-1344.7 -8371.4,-1718.1 -12573.56,-1027 -116.7,18.8 -210.09,74.3 -266.23,144.6 -448.16,-149.5 -1279.45,-448.1 -2255.18,-924.7 -98.05,-46.6 -196.12,-92.9 -289.53,-140 322.37,-4.4 635.18,-51 915.17,-125.8 976.17,-219.4 1867.59,-574.6 2773.45,-873.2 1788.38,-621 3655.98,-1046 5504.98,-789.1 1848.9,257.1 3622.9,999.4 5369.4,1760.4 877.6,382.9 1746.2,788.7 2666,1125.3 308.2,111.6 625.5,219.4 966.7,289.5 z m -5252.7,-7409.8 c 1568.5,1559.4 2166.2,3679 1998,5602.8 -1531.2,-737.7 -3380.2,-1569 -5668.2,-1951.9 -3585.7,-420 -6265.74,1227.9 -8142.87,1746.2 -27.97,9.8 -60.79,18.9 -88.53,28.4 -23.29,-369 -18.63,-761.4 23.3,-1172.3 177.26,-1909.5 1358.66,-4248.8 3744.7,-5499.8 2301.8,-1274.9 5831.3,-1069.2 8133.6,1246.6 z m 1096.8,-5710.43 c 266.5,266.22 747,2871.53 747,3202.93 -23.3,60.8 -233.4,359.4 -2030.9,1148.6 L 16876.1,5946.06 c 481,-733.23 938.3,-1433.64 1344.7,-2045.09 602.4,1316.74 1185.9,2651.88 1237.3,2871.74 -18.6,79.2 -205.4,340.54 -317.2,504.28 -247.6,359.19 -392.7,569.51 -392.7,732.57 0,294.19 355.2,378.49 761.6,471.45 186.4,47.04 377.8,93.63 494.5,149.76 z m -835.7,16733.63 c 289.5,-9.1 574.6,-23.1 859,-41.9 -335.9,933.8 -732.5,1890.9 -1321.3,2591.3 -223.9,196.1 -247.2,261.8 -546.3,247.6 -284.4,0 -569.5,-9.1 -859,-27.8 -569.5,-37.5 -1139,-107.6 -1709,-196.1 -2245.6,-355.2 -4435.6,-1064.7 -6541.23,-1942.4 242.71,-523.1 550.88,-1246.6 943.12,-2255.1 215.21,74.7 429.91,149 644.71,219.1 1372.4,458 2773,817.2 4202,1060.3 1428.5,247.2 2875.9,373.4 4328,345 z M 17277.7,9041.43 18332.9,13075.9 c -401.6,-285.1 -835.8,-523.1 -1288.6,-714.6 116.7,-23.3 294.2,-98.1 485.7,-303.7 336.1,-368.8 -714.6,-1601.2 -714.6,-1601.2 -891.9,555.8 -1554.8,0 -1554.8,0 -742.4,354.8 -840.4,952.5 -826.2,1307.2 -462.4,-23.3 -929.2,-4.6 -1391.5,56.1 546.2,-840.4 1246.6,-1919.24 1993.8,-3053.61 l 312.8,1316.71 c 0,0 560.5,565.1 1279.5,0 z M 8611.72,23202.8 c 331.46,140 668,270.9 1008.56,397.2 -569.51,1447.1 -1223.33,2936.7 -1480.01,3254.2 -186.38,-135.6 -569.51,-574.6 -886.77,-994.6 564.84,-920.1 1180.94,-2204 1358.22,-2656.8 z m -1003.47,-467 c 214.75,112.3 424.86,210.3 639.62,303.8 -158.64,471.4 -863.92,1858 -1400.6,2722.2 -5.1,9 -5.1,13.5 -9.75,18.6 -223.86,359.2 -415.33,625.6 -522.93,695.3 -242.49,-88.5 -938.23,-1050.5 -1480.01,-1960.6 303.72,-420.4 1475.57,-1975.2 2353.25,-2591.7 -4.66,47 -4.66,93.4 -4.66,140.4 -83.86,209.7 270.89,667.6 425.08,672 z M 7108.4,16381.6 c -433.95,1106.2 -602.34,2315.7 -499.62,3501.8 -583.71,144.4 -1073.78,121.4 -1456.49,36.8 -560.2,-326.3 -961.99,-601.6 -1167.2,-742.3 -74.77,-130.2 -172.83,-312.6 -266.23,-541.6 -252.25,-522.4 -196.12,-1190.5 667.57,-1512.4 1185.83,-453.2 2236.32,-649.3 2721.97,-742.3"
       style="fill:#3a393a;fill-opacity:1;fill-rule:nonzero;stroke:none"
       transform="matrix(0.13333333,0,0,-0.13333333,0,4000)" />
    <path
       id="path10"
       d="m 15638.2,21091.6 c -2281.2,-233.4 -4592,-181 -6862.76,192.4 -116.7,18.8 -210.09,74.3 -266.23,144.6 -448.16,-149.5 -1279.45,-448.1 -2255.18,-924.7 -98.05,-46.6 -196.12,-92.9 -289.53,-140 322.37,-4.4 635.18,-51 915.17,-125.8 976.17,-219.4 1867.59,-574.6 2773.45,-873.2 1788.38,-621 3655.98,-1046 5504.98,-789.1 1382.4,192.3 2722.8,656 4041.1,1195.3 -1530.6,-225.6 -2922.3,-112.4 -3561,1320.5"
       style="fill:#7b7979;fill-opacity:1;fill-rule:nonzero;stroke:none"
       transform="matrix(0.13333333,0,0,-0.13333333,0,4000)" />
    <path
       id="path11"
       d="m 23193.5,21461.5 c 308.2,111.6 625.5,219.4 966.7,289.5 -140.4,46.6 -289.5,88.5 -448.4,125.8 -1125.3,317.5 -1970.5,616.5 -2082.3,667.6 l -140.5,-23.3 5.1,-56.2 88.5,9.8 c -46.6,-65.7 -126,-130.9 -233.6,-163.7 -1851.6,-617.9 -3770.7,-1020.6 -5710.8,-1219.4 638.7,-1432.9 2030.4,-1546.1 3561,-1320.5 445.1,182.4 887.7,373 1328.3,565.1 877.6,382.9 1746.2,788.7 2666,1125.3"
       style="fill:#5a5758;fill-opacity:1;fill-rule:nonzero;stroke:none"
       transform="matrix(0.13333333,0,0,-0.13333333,0,4000)" />
    <path
       id="path12"
       d="m 21661.8,3461.93 c 65.7,-872.8 93.4,-1741.37 -46.3,-1764.66 -135.6,-23.31 -410.9,798.47 -654.1,1638.87 -242.5,844.83 -452.6,1713.4 -462.3,1773.98 -13.6,65.65 32.8,135.52 112.2,191.68 84.3,55.89 201,107.59 341,130.66 135.6,23.31 261.4,18.85 359.5,-4.43 98,-28.41 163.7,-74.77 172.8,-140.42 14,-65.25 116.7,-947.57 177.2,-1825.68"
       style="fill:#3a393a;fill-opacity:1;fill-rule:nonzero;stroke:none"
       transform="matrix(0.13333333,0,0,-0.13333333,0,4000)" />
    <path
       id="path13"
       d="m 10049.8,23254.3 c -18.6,-18.6 -41.9,-32.8 -65.23,-41.9 -23.07,-9.6 -46.37,-14.2 -70.11,-14.2 -9.1,0 -18.64,0 -27.73,4.6 -1564.09,-499.4 -2544.71,-994.6 -2549.37,-1377.5 51.47,-27.7 98.07,-55.7 140,-74.3 56.12,-28.2 93.4,-74.8 107.59,-130.9 410.88,102.7 830.86,177.5 1265.26,210.3 v -37.5 -14.2 c 4.67,0 9.09,0 13.75,0 2174.84,-414 4414.54,-522.4 6641.94,-356.9 -349.1,972.1 -488.3,2011.8 -701.3,2991.5 -1810.1,-353.2 -3465.4,-758.3 -4754.8,-1159"
       style="fill:#656263;fill-opacity:1;fill-rule:nonzero;stroke:none"
       transform="matrix(0.13333333,0,0,-0.13333333,0,4000)" />
    <path
       id="path14"
       d="m 21494.1,22464.9 -5.1,56.2 c -37.3,-56.2 -121.1,980.8 -578.6,2213.2 -1223.3,223.9 -3553.3,121.4 -5971.7,-293.9 -45.1,-8.7 -89,-18 -134.1,-27.1 213,-979.7 352.2,-2019.4 701.3,-2991.5 1842.1,137.3 3676,458.3 5455.5,978.1 l 532.7,65"
       style="fill:#444142;fill-opacity:1;fill-rule:nonzero;stroke:none"
       transform="matrix(0.13333333,0,0,-0.13333333,0,4000)" />
    <path
       id="path15"
       d="m 18389,16059.2 c -3268.4,-2334.6 -6536.6,1867.6 -9338.23,0 -282.64,-282.6 -221.42,-1078 76.77,-1765.5 467.23,-456.8 1012.96,-867.3 1646.36,-1199.1 1679.3,-930.3 4010.8,-1067 6043.4,-176.9 923.2,835.8 1571.7,1895.3 1571.7,3141.5"
       style="fill:#f46f16;fill-opacity:1;fill-rule:nonzero;stroke:none"
       transform="matrix(0.13333333,0,0,-0.13333333,0,4000)" />
    <path
       id="path16"
       d="m 20905.5,19944 c -1531.2,-737.7 -3380.2,-1569 -5668.2,-1951.9 -3585.7,-420 -6265.74,1227.9 -8142.87,1746.2 -27.97,9.8 -60.79,18.9 -88.53,28.4 -23.29,-369 -18.63,-761.4 23.3,-1172.3 130.23,-1403 804.68,-3035.9 2098.34,-4300.7 -298.19,687.5 -359.41,1482.9 -76.77,1765.5 2801.63,1867.6 6069.83,-2334.6 9338.23,0 0,-1246.2 -648.5,-2305.7 -1571.7,-3141.5 753.7,330.2 1467.2,796.9 2090.2,1423.5 1568.5,1559.4 2166.2,3679 1998,5602.8"
       style="fill:#d46013;fill-opacity:1;fill-rule:nonzero;stroke:none"
       transform="matrix(0.13333333,0,0,-0.13333333,0,4000)" />
    <path
       id="path17"
       d="m 13217.9,27430.6 c -1419,-376.3 -2810.5,-870.2 -4167.13,-1435.5 242.71,-523.1 550.88,-1246.6 943.12,-2255.1 215.21,74.7 429.91,149 644.71,219.1 1315.8,439.1 2658.1,784.3 4026.1,1026.6 -253.2,942.4 -640.1,1800.1 -1446.8,2444.9"
       style="fill:#7b7979;fill-opacity:1;fill-rule:nonzero;stroke:none"
       transform="matrix(0.13333333,0,0,-0.13333333,0,4000)" />
    <path
       id="path18"
       d="m 19168.6,25364.4 c 289.5,-9.1 574.6,-23.1 859,-41.9 -335.9,933.8 -732.5,1890.9 -1321.3,2591.3 -223.9,196.1 -247.2,261.8 -546.3,247.6 -284.4,0 -569.5,-9.1 -859,-27.8 -569.5,-37.5 -1139,-107.6 -1709,-196.1 -798.7,-126.2 -1590.7,-299.5 -2374.1,-506.9 806.7,-644.8 1193.6,-1502.5 1446.8,-2444.9 58.7,10.4 117.1,23.5 175.9,33.7 1428.5,247.2 2875.9,373.4 4328,345"
       style="fill:#5a5758;fill-opacity:1;fill-rule:nonzero;stroke:none"
       transform="matrix(0.13333333,0,0,-0.13333333,0,4000)" />
    <path
       id="path19"
       d="m 10806.3,4709 c 84.3,-47.04 130.9,-93.63 126.3,-140.45 -9.6,-46.6 -158.7,-672.24 -341,-1274.34 -186.6,-607.02 -401.4,-1200.26 -536.7,-1176.95 -140.44,18.61 -172.83,649.36 -168.17,1279.43 4.44,635.17 46.37,1274.81 51.47,1321.4 9.1,46.59 69.7,79.43 163.3,98.05 93.4,13.99 224.3,13.99 359.2,-4.66 135.5,-18.62 257.1,-60.55 345.6,-102.48"
       style="fill:#3a393a;fill-opacity:1;fill-rule:nonzero;stroke:none"
       transform="matrix(0.13333333,0,0,-0.13333333,0,4000)" />
    <path
       id="path20"
       d="m 9620.28,23600 c -340.56,-126.3 -677.1,-257.2 -1008.56,-397.2 -177.28,452.8 -793.38,1736.7 -1358.22,2656.8 317.26,420 700.39,859 886.77,994.6 256.68,-317.5 910.5,-1807.1 1480.01,-3254.2"
       style="fill:#d3d2d2;fill-opacity:1;fill-rule:nonzero;stroke:none"
       transform="matrix(0.13333333,0,0,-0.13333333,0,4000)" />
    <path
       id="path21"
       d="m 5513.47,25562.3 c -225.63,-319.5 -464.13,-686.2 -678.89,-1047.2 241.16,-334.3 1030.97,-1383.9 1785.96,-2110.7 951.1,895.6 -33.73,2077.9 -1107.07,3157.9"
       style="fill:#f4f4f4;fill-opacity:1;fill-rule:nonzero;stroke:none"
       transform="matrix(0.13333333,0,0,-0.13333333,0,4000)" />
    <path
       id="path22"
       d="m 6847.27,25761.8 c -5.1,9 -5.1,13.5 -9.75,18.6 -223.86,359.2 -415.33,625.6 -522.93,695.3 -146.43,-53.3 -458.13,-427.3 -801.12,-913.4 1073.34,-1080 2058.17,-2262.3 1107.07,-3157.9 194.79,-187.5 387.14,-354.8 567.29,-481 -4.66,47 -4.66,93.4 -4.66,140.4 -83.86,209.7 270.89,667.6 425.08,672 214.75,112.3 424.86,210.3 639.62,303.8 -158.64,471.4 -863.92,1858 -1400.6,2722.2"
       style="fill:#d3d2d2;fill-opacity:1;fill-rule:nonzero;stroke:none"
       transform="matrix(0.13333333,0,0,-0.13333333,0,4000)" />
    <path
       id="path23"
       d="m 5782.57,2187.57 37.29,-4.66 c 0,-5.11 -4.45,-5.11 -4.45,-9.53 l -32.84,14.19"
       style="fill:#3a393a;fill-opacity:1;fill-rule:nonzero;stroke:none"
       transform="matrix(0.13333333,0,0,-0.13333333,0,4000)" />
    <path
       id="path24"
       d="m 18332.9,8191.05 1323.1,870.12 c -636.9,81.21 -1277.9,140.44 -1921.3,159.96 l -858.6,-3275.07 c 353.5,-539.1 693.6,-1059.37 1010.8,-1540.37 l 1228.9,2354.6 c 0,0 -610.1,1011.45 -782.9,1430.76"
       style="fill:#666666;fill-opacity:1;fill-rule:nonzero;stroke:none"
       transform="matrix(0.13333333,0,0,-0.13333333,0,4000)" />
    <path
       id="path25"
       d="m 18001.4,3420 c 9.5,18.63 14.2,32.81 23.3,51.46 -461.9,700.42 -994.6,1512.84 -1549.9,2357.69 l -37.3,9.77 9.1,37.27 c -696.8,1061.13 -1420.8,2166.65 -2064.6,3151.26 -848.6,1298.05 -1557.6,2384.95 -1875.8,2876.15 -257.1,51.5 -518.5,116.7 -770.7,196.1 -737.7,-280 -1512.9,-630.3 -1634,-784.2 -4.7,-46.6 9.1,-135.6 27.7,-247.6 l 9.6,-4.7 32.8,-18.6 c -9.5,-18.7 -18.6,-37.5 -23.7,-51 163.7,-789.4 742.7,-2558.96 891.8,-2834.5 4.2,-1.76 10.9,-4 16,-6.21 865.5,338.33 1772.4,586.81 2700.2,763.2 l 4815,-6971.69 c -682.2,17.32 -1363.8,41.96 -2045.5,71.67 67,-29.71 127.8,-51.46 177.9,-62.11 l -83.8,-392.03 c -209,43.7 -537.6,228.3 -927.2,492.74 -1809.7,89.85 -3615.6,214.31 -5413.5,359.87 -84.4,-187.49 -162.4,-307.73 -223.9,-297.28 -61.01,8.2 -100.73,135.76 -126.68,325.47 -1279.45,104.91 -2554.48,218.96 -3822.83,337 -94.51,-199.68 -191.46,-397.14 -285.53,-596.82 l 4066.87,-247.6 6709.47,-602.33 h 23.3 2373.6 465 c -74.7,88.96 -621,906.05 -1377.3,2049.52 l -79.4,37.5"
       style="fill:#404040;fill-opacity:1;fill-rule:nonzero;stroke:none"
       transform="matrix(0.13333333,0,0,-0.13333333,0,4000)" />
    <path
       id="path26"
       d="m 25672.1,2030.71 c -1322.2,-72.08 -2648.3,-109.58 -3975.7,-116.91 -15.3,-127.12 -41,-209.65 -80.9,-216.53 -43.5,-7.34 -101.9,78.08 -167.5,215.2 -639.2,-1.77 -1278.6,2.22 -1918.2,13.31 128.2,-189.69 211.2,-310.14 236.7,-340.55 l -308.4,-252.25 2255.2,205.66 h 4108.8 v 158.63 c -4.6,0 -56.1,119.58 -150,333.44"
       style="fill:#404040;fill-opacity:1;fill-rule:nonzero;stroke:none"
       transform="matrix(0.13333333,0,0,-0.13333333,0,4000)" />
    <path
       id="path27"
       d="m 18332.9,8191.05 c 172.8,-419.31 782.9,-1430.76 782.9,-1430.76 l -1228.9,-2354.6 c 114.5,-173.27 226.3,-342.31 333.9,-504.72 602.4,1316.74 1185.9,2651.88 1237.3,2871.74 -18.6,79.2 -205.4,340.54 -317.2,504.28 -247.6,359.19 -392.7,569.51 -392.7,732.57 0,294.19 355.2,378.49 761.6,471.45 186.4,47.04 377.8,93.63 494.5,149.76 50.4,50.14 107.9,182.8 168.4,367.41 261.8,798.46 578.6,2566.62 578.6,2835.52 -23.3,60.8 -233.4,359.4 -2030.9,1148.6 l -985.7,-3761.17 c 504.8,-15.52 1007.7,-56.57 1509.1,-109.37 l -910.9,-920.71"
       style="fill:#404040;fill-opacity:1;fill-rule:nonzero;stroke:none"
       transform="matrix(0.13333333,0,0,-0.13333333,0,4000)" />
  </g>
</svg>
